<?xml version="1.0" encoding="UTF-8"?>
<svg id="a" data-name="Layer 1" xmlns="http://www.w3.org/2000/svg" width="308.695" height="209.899" viewBox="0 0 308.695 209.899">
  <path d="M154.348,199.404c-7.783,0-15.566-1.977-22.357-5.933l-97.527-56.81c-11.915-6.941-19.029-18.796-19.029-31.712s7.114-24.771,19.029-31.712L131.99,16.428c13.583-7.91,31.133-7.912,44.715,0l97.526,56.809c11.915,6.941,19.029,18.796,19.029,31.712s-7.115,24.771-19.029,31.712l-97.526,56.81c-6.791,3.955-14.574,5.933-22.357,5.933Zm0-161.269c-2.98,0-5.961,.725-8.448,2.173L48.375,97.117c-3.371,1.963-5.304,4.818-5.304,7.832s1.933,5.869,5.304,7.832l97.526,56.81c4.973,2.896,11.921,2.897,16.893,0l97.526-56.81c3.371-1.963,5.304-4.818,5.304-7.832s-1.933-5.869-5.304-7.832l-97.526-56.809c-2.486-1.448-5.467-2.173-8.446-2.173Z" fill="#575b8c"/>
</svg>