<?xml version="1.0" encoding="UTF-8"?>
<svg id="a" data-name="Layer 1" xmlns="http://www.w3.org/2000/svg" width="225.171" height="225.171" viewBox="0 0 225.171 225.171">
  <path d="M206.633,78.184h-52.368c-4.02,0-7.279-3.259-7.279-7.279V18.538c0-4.02-3.259-7.279-7.279-7.279h-54.244c-4.02,0-7.279,3.259-7.279,7.279v52.367c0,4.02-3.259,7.279-7.279,7.279H18.538c-4.02,0-7.279,3.259-7.279,7.279v54.244c0,4.02,3.259,7.279,7.279,7.279h52.367c4.02,0,7.279,3.259,7.279,7.279v52.368c0,4.02,3.259,7.279,7.279,7.279h54.244c4.02,0,7.279-3.259,7.279-7.279v-52.368c0-4.02,3.259-7.279,7.279-7.279h52.368c4.02,0,7.279-3.259,7.279-7.279v-54.244c0-4.02-3.259-7.279-7.279-7.279Z" fill="#e25439"/>
</svg>