<?xml version="1.0" encoding="UTF-8"?>
<svg id="a" data-name="Layer 1" xmlns="http://www.w3.org/2000/svg" width="286.477" height="165.722" viewBox="0 0 286.477 165.722">
  <g>
    <path d="M56.791,114.894c-22.614,0-41.107,17.645-42.462,39.919-.087,1.425,1.068,2.623,2.496,2.623H96.757c1.428,0,2.583-1.198,2.496-2.623-1.355-22.274-19.848-39.919-42.462-39.919Z" fill="#e0c786"/>
    <path d="M143.239,114.894c-22.614,0-41.107,17.645-42.462,39.919-.087,1.425,1.068,2.623,2.496,2.623h79.932c1.428,0,2.583-1.198,2.496-2.623-1.355-22.274-19.848-39.919-42.462-39.919Z" fill="#e0c786"/>
    <path d="M229.686,114.894c-22.614,0-41.107,17.645-42.462,39.919-.087,1.425,1.068,2.623,2.496,2.623h79.932c1.428,0,2.583-1.198,2.496-2.623-1.355-22.274-19.848-39.919-42.462-39.919Z" fill="#e0c786"/>
  </g>
  <g>
    <path d="M100.015,61.59c-22.614,0-41.107,17.645-42.462,39.919-.087,1.425,1.068,2.623,2.496,2.623h79.932c1.428,0,2.583-1.198,2.496-2.623-1.355-22.274-19.848-39.919-42.462-39.919Z" fill="#e0c786"/>
    <path d="M186.462,61.59c-22.614,0-41.107,17.645-42.462,39.919-.087,1.425,1.068,2.623,2.496,2.623h79.932c1.428,0,2.583-1.198,2.496-2.623-1.355-22.274-19.848-39.919-42.462-39.919Z" fill="#e0c786"/>
  </g>
  <path d="M143.239,8.286c-22.614,0-41.107,17.645-42.462,39.919-.087,1.425,1.068,2.623,2.496,2.623h79.932c1.428,0,2.583-1.198,2.496-2.623-1.355-22.274-19.848-39.919-42.462-39.919Z" fill="#e0c786"/>
</svg>