<?xml version="1.0" encoding="UTF-8"?>
<svg id="a" data-name="Layer 1" xmlns="http://www.w3.org/2000/svg" width="227.064" height="227.064" viewBox="0 0 227.064 227.064">
  <path d="M113.532,215.711c-27.293,0-52.952-10.628-72.251-29.928-19.299-19.299-29.927-44.958-29.927-72.251s10.628-52.952,29.927-72.251C60.58,21.982,86.239,11.353,113.532,11.353s52.952,10.628,72.251,29.927c19.299,19.299,29.927,44.958,29.927,72.251s-10.628,52.952-29.927,72.251c-19.299,19.299-44.958,29.927-72.251,29.927Z" fill="#e5ad6a"/>
  <path d="M113.532,194.437c-21.61,0-41.928-8.416-57.209-23.697-15.281-15.281-23.697-35.598-23.697-57.209s8.416-41.928,23.697-57.209c15.281-15.281,35.598-23.697,57.209-23.697s41.928,8.416,57.209,23.697c15.281,15.281,23.697,35.598,23.697,57.209s-8.416,41.928-23.697,57.209c-15.281,15.281-35.598,23.697-57.209,23.697Z" fill="#e29951"/>
  <path d="M113.532,173.164c-15.928,0-30.903-6.203-42.166-17.466-11.263-11.263-17.466-26.238-17.466-42.166s6.203-30.903,17.466-42.166c11.263-11.263,26.238-17.466,42.166-17.466s30.903,6.203,42.166,17.466,17.466,26.238,17.466,42.166-6.203,30.903-17.466,42.166c-11.263,11.263-26.238,17.466-42.166,17.466Z" fill="#e08637"/>
  <circle cx="113.532" cy="113.532" r="38.358" fill="#dd721e"/>
</svg>