<?xml version="1.0" encoding="UTF-8"?>
<svg id="a" data-name="Layer 1" xmlns="http://www.w3.org/2000/svg" width="237.774" height="237.774" viewBox="0 0 237.774 237.774">
  <path d="M225.885,118.887c0,8.764-19.075,14.904-21.235,22.987-2.235,8.363,11.147,23.204,6.911,30.526-4.297,7.427-23.879,3.227-29.907,9.254-6.028,6.028-1.827,25.61-9.254,29.907-7.322,4.236-22.163-9.146-30.526-6.911-8.083,2.16-14.223,21.235-22.987,21.235s-14.904-19.075-22.987-21.235c-8.363-2.235-23.204,11.147-30.526,6.911-7.427-4.297-3.227-23.879-9.254-29.907-6.028-6.028-25.61-1.827-29.907-9.254-4.236-7.322,9.146-22.163,6.911-30.526-2.16-8.083-21.235-14.223-21.235-22.987s19.075-14.904,21.235-22.987c2.235-8.363-11.147-23.204-6.911-30.526,4.297-7.427,23.879-3.227,29.907-9.254,6.028-6.028,1.827-25.61,9.254-29.907,7.322-4.236,22.163,9.146,30.526,6.911,8.083-2.16,14.223-21.235,22.987-21.235s14.904,19.075,22.987,21.235c8.363,2.235,23.204-11.147,30.526-6.911,7.427,4.297,3.227,23.879,9.254,29.907,6.028,6.028,25.61,1.827,29.907,9.254,4.236,7.322-9.146,22.163-6.911,30.526,2.16,8.083,21.235,14.223,21.235,22.987Z" fill="#e585c3"/>
</svg>