<?xml version="1.0" encoding="UTF-8"?>
<svg id="a" data-name="Layer 1" xmlns="http://www.w3.org/2000/svg" width="252.252" height="252.588" viewBox="0 0 252.252 252.588">
  <path d="M187.856,126.294h45.769c3.468,0,6.203-2.925,6.005-6.387-.511-8.914-2.063-17.85-4.657-26.48-.994-3.305-4.573-5.089-7.816-3.909l-43.016,15.66c-2.877,1.048-6.119-.218-7.44-2.981-.708-1.481-1.48-2.926-2.312-4.331-1.563-2.643-.812-6.048,1.671-7.855l37.009-26.934c2.788-2.029,3.309-5.99,1.128-8.66-5.675-6.945-12.159-13.213-19.298-18.651-2.744-2.09-6.687-1.432-8.619,1.426l-25.631,37.927c-1.717,2.54-5.087,3.412-7.781,1.949-1.435-.779-2.908-1.497-4.416-2.151-2.813-1.221-4.198-4.419-3.251-7.335l14.135-43.533c1.065-3.281-.842-6.794-4.178-7.673-8.727-2.298-17.712-3.565-26.638-3.746-3.443-.07-6.235,2.78-6.117,6.222l1.572,45.761c.105,3.064-2.107,5.759-5.147,6.154-1.634,.212-3.246,.495-4.833,.845-2.996,.661-5.995-1.106-6.943-4.024l-14.141-43.552c-1.065-3.279-4.668-5.002-7.883-3.757-8.429,3.263-16.438,7.553-23.82,12.695-2.829,1.97-3.412,5.921-1.288,8.636l28.206,36.053c1.891,2.417,1.682,5.897-.544,8.01-1.185,1.124-2.321,2.299-3.404,3.522-2.034,2.296-5.503,2.624-7.983,.819l-37.02-26.942c-2.787-2.028-6.714-1.308-8.585,1.586-4.889,7.561-8.875,15.739-11.844,24.281-1.132,3.257,.716,6.798,4.032,7.747l44.01,12.597c2.954,.846,4.825,3.788,4.264,6.809-.614,3.308-.939,6.717-.939,10.203h0s-51.485,0-51.485,0c-3.468,0-6.203,2.925-6.005,6.387,.511,8.914,2.063,17.85,4.657,26.48,.994,3.305,4.573,5.089,7.816,3.909l43.016-15.66c2.877-1.048,6.119,.218,7.44,2.981,.708,1.481,1.48,2.926,2.312,4.331,1.563,2.643,.812,6.048-1.671,7.855l-37.01,26.934c-2.788,2.029-3.309,5.99-1.128,8.66,5.675,6.945,12.159,13.213,19.298,18.651,2.744,2.09,6.687,1.432,8.619-1.426l25.631-37.927c1.717-2.54,5.087-3.412,7.781-1.949,1.435,.779,2.908,1.497,4.416,2.151,2.813,1.22,4.198,4.419,3.251,7.335l-14.135,43.533c-1.065,3.281,.842,6.794,4.178,7.673,8.727,2.298,17.713,3.565,26.638,3.746,3.443,.07,6.235-2.78,6.117-6.222l-1.572-45.761c-.105-3.064,2.107-5.759,5.147-6.154,1.634-.212,3.246-.495,4.832-.845,2.996-.661,5.995,1.106,6.943,4.024l14.141,43.552c1.065,3.279,4.668,5.002,7.883,3.757,8.43-3.263,16.439-7.553,23.82-12.695,2.829-1.97,3.412-5.921,1.288-8.636l-28.206-36.053c-1.891-2.417-1.682-5.897,.544-8.01,1.185-1.124,2.321-2.299,3.404-3.522,2.034-2.296,5.503-2.624,7.983-.819l37.02,26.942c2.787,2.028,6.713,1.308,8.585-1.586,4.889-7.561,8.876-15.739,11.844-24.281,1.132-3.257-.716-6.798-4.032-7.747l-44.01-12.597c-2.954-.846-4.825-3.788-4.264-6.809,.296-1.596,.525-3.216,.683-4.856,.293-3.049,2.91-5.347,5.973-5.347Z" fill="#dd721e"/>
</svg>