<?xml version="1.0" encoding="UTF-8"?>
<svg id="a" data-name="Layer 1" xmlns="http://www.w3.org/2000/svg" width="231.794" height="176.063" viewBox="0 0 231.794 176.063">
  <path d="M28.309,113.11c0-48.296,39.292-87.587,87.587-87.587s87.589,39.292,87.589,87.587v54.15h16.719v-54.15c0-57.514-46.792-104.307-104.308-104.307S11.59,55.595,11.59,113.11v54.15H28.309v-54.15Z" fill="#e25439"/>
  <path d="M115.896,25.522c-48.296,0-87.587,39.292-87.587,87.587v54.15h16.719v-54.15c0-39.078,31.791-70.868,70.868-70.868s70.87,31.791,70.87,70.868v54.15h16.719v-54.15c0-48.296-39.292-87.587-87.589-87.587Z" fill="#e08637"/>
  <path d="M61.747,113.11c0-29.906,24.244-54.15,54.15-54.15h0c29.907,0,54.15,24.244,54.15,54.15v54.15h16.719v-54.15c0-39.078-31.792-70.868-70.87-70.868S45.028,74.032,45.028,113.11v54.15h16.719v-54.15Z" fill="#e0c786"/>
</svg>