<?xml version="1.0" encoding="UTF-8"?>
<svg id="a" data-name="Layer 1" xmlns="http://www.w3.org/2000/svg" width="208.478" height="209.551" viewBox="0 0 208.478 209.551">
  <path d="M170.475,104.775h18.43c5.428,0,9.679-4.704,9.096-10.1-.899-8.311-2.899-16.555-5.975-24.363-3.068-7.823-7.189-15.206-12.192-21.912-3.245-4.35-9.559-4.905-13.537-1.213l-13.508,12.539c-3.355,3.115-8.484,3.25-12.026,.351-.357-.293-.718-.581-1.083-.865-3.607-2.811-4.606-7.838-2.316-11.796l9.229-15.951c2.719-4.7,.773-10.736-4.192-12.933-7.686-3.402-15.843-5.781-24.147-7.023-5.825-.882-11.683-1.178-17.518-.964-2.493,.093-4.989,.284-7.478,.575-5.392,.629-9.038,5.815-7.835,11.109l4.085,17.97c1.012,4.453-1.423,8.958-5.694,10.574-.44,.166-.877,.338-1.311,.515-4.238,1.724-9.095,.09-11.386-3.87l-9.229-15.952c-2.718-4.698-8.918-6.021-13.297-2.815-6.755,4.944-12.841,10.776-18.061,17.315-5.228,6.538-9.587,13.798-12.919,21.518-2.153,4.988,.522,10.743,5.714,12.343l17.618,5.428c4.375,1.348,6.827,5.688,6.319,10.237-1.887,16.896-27.686,9.285-27.686,9.285-5.428,0-9.679,4.704-9.096,10.1,.899,8.311,2.899,16.555,5.975,24.363,3.068,7.823,7.189,15.206,12.192,21.912,3.245,4.35,9.559,4.905,13.537,1.213l13.508-12.539c3.355-3.115,8.484-3.25,12.026-.351,.357,.293,.718,.581,1.083,.865,3.607,2.811,4.606,7.838,2.316,11.796l-9.229,15.951c-2.719,4.7-.773,10.736,4.192,12.933,7.686,3.402,15.843,5.781,24.147,7.023,5.825,.882,11.683,1.178,17.518,.964,2.493-.093,4.989-.284,7.478-.575,5.392-.629,9.038-5.815,7.835-11.109l-4.085-17.971c-1.012-4.453,1.423-8.958,5.694-10.574,.44-.166,.877-.338,1.311-.515,4.238-1.724,9.095-.09,11.386,3.87l9.229,15.952c2.718,4.698,8.918,6.021,13.297,2.815,6.755-4.944,12.841-10.776,18.061-17.315,5.228-6.538,9.587-13.798,12.919-21.518,2.153-4.988-.522-10.743-5.714-12.343l-17.618-5.428c-4.375-1.348-7.05-5.719-6.319-10.238,.074-.457,.143-.916,.206-1.377,.621-4.529,4.479-7.908,9.05-7.908Z" fill="#6f9cbc"/>
</svg>