<?xml version="1.0" encoding="UTF-8"?>
<svg id="a" data-name="Layer 1" xmlns="http://www.w3.org/2000/svg" width="199.652" height="158.588" viewBox="0 0 199.652 158.588">
  <path d="M124.256,56.591l-20.543-17.28c-2.245-1.888-5.522-1.888-7.767,0l-20.541,17.28c-2.244,1.888-5.522,1.888-7.766,0l-20.547-17.282c-2.245-1.888-5.522-1.888-7.766,0l-12.433,10.457c-2.55,2.145-6.355,1.816-8.5-.734l-6.994-8.316c-2.145-2.55-1.816-6.355,.734-8.5L39.325,9.346c2.245-1.888,5.522-1.888,7.766,0l20.546,17.281c2.245,1.888,5.522,1.888,7.766,0l20.543-17.281c2.245-1.888,5.522-1.888,7.767,0l20.543,17.28c2.245,1.888,5.522,1.888,7.767,0l20.542-17.28c2.245-1.888,5.522-1.888,7.767,0l27.189,22.872c2.55,2.145,2.878,5.95,.733,8.5l-6.995,8.315c-2.145,2.55-5.95,2.878-8.5,.733l-12.427-10.454c-2.245-1.888-5.522-1.888-7.767,0l-20.542,17.28c-2.245,1.888-5.522,1.888-7.767,0Z" fill="#1369aa"/>
  <path d="M124.256,102.917l-20.543-17.28c-2.245-1.888-5.522-1.888-7.767,0l-20.541,17.28c-2.244,1.888-5.522,1.888-7.766,0l-20.547-17.282c-2.245-1.888-5.522-1.888-7.766,0l-12.433,10.457c-2.55,2.145-6.355,1.816-8.5-.734l-6.994-8.316c-2.145-2.55-1.816-6.355,.734-8.5l27.193-22.872c2.245-1.888,5.522-1.888,7.766,0l20.546,17.281c2.245,1.888,5.522,1.888,7.766,0l20.543-17.281c2.245-1.888,5.522-1.888,7.767,0l20.543,17.28c2.245,1.888,5.522,1.888,7.767,0l20.542-17.28c2.245-1.888,5.522-1.888,7.767,0l27.189,22.872c2.55,2.145,2.878,5.95,.733,8.5l-6.995,8.315c-2.145,2.55-5.95,2.878-8.5,.733l-12.427-10.454c-2.245-1.888-5.522-1.888-7.767,0l-20.542,17.28c-2.245,1.888-5.522,1.888-7.767,0Z" fill="#1369aa"/>
  <path d="M124.256,149.242l-20.543-17.28c-2.245-1.888-5.522-1.888-7.767,0l-20.542,17.28c-2.244,1.888-5.522,1.888-7.766,0l-20.547-17.281c-2.245-1.888-5.522-1.888-7.766,0l-12.432,10.457c-2.55,2.145-6.355,1.816-8.5-.734l-6.994-8.316c-2.144-2.55-1.816-6.355,.734-8.5l27.193-22.872c2.245-1.888,5.522-1.888,7.766,0l20.546,17.281c2.245,1.888,5.522,1.888,7.766,0l20.543-17.281c2.245-1.888,5.522-1.888,7.767,0l20.543,17.28c2.245,1.888,5.522,1.888,7.767,0l20.542-17.28c2.245-1.888,5.522-1.888,7.767,0l27.189,22.872c2.55,2.145,2.878,5.95,.733,8.5l-6.995,8.315c-2.145,2.55-5.95,2.878-8.5,.733l-12.427-10.454c-2.245-1.888-5.522-1.888-7.767,0l-20.542,17.28c-2.245,1.888-5.522,1.888-7.767,0Z" fill="#1369aa"/>
</svg>